<?xml version="1.0" encoding="UTF-8" standalone="no"?>
<svg width="171px" height="173px" viewBox="0 0 171 173" version="1.1" xmlns="http://www.w3.org/2000/svg" xmlns:xlink="http://www.w3.org/1999/xlink">
    <!-- Generator: Sketch 46.2 (44496) - http://www.bohemiancoding.com/sketch -->
    <title>SD_logo-whiteShape Copy 2</title>
    <desc>Created with Sketch.</desc>
    <defs></defs>
    <g id="Page-1" stroke="none" stroke-width="1" fill="none" fill-rule="evenodd">
        <g id="strumdog-logo-copy-6" transform="translate(-415.000000, -405.000000)" fill-rule="nonzero" fill="#FFFFFF">
            <path d="M585.691657,499.517304 C586.130928,500.681768 586.062663,501.976825 585.502197,503.088358 C579.443426,515.132194 570.530384,525.119173 559.726203,531.969918 C549.071907,538.725685 536.828223,542.296244 524.318405,542.296244 C520.063216,542.296244 515.784283,541.882697 511.554323,541.064505 L511.48408,572.847825 C511.481111,574.132494 510.923614,575.35335 509.954052,576.19677 C509.138829,576.906133 508.099518,577.29 507.032505,577.29 C506.830678,577.29 506.627862,577.276149 506.425045,577.248447 L418.844442,565.19175 C417.512779,565.008226 416.335454,564.233071 415.640436,563.081964 C414.945914,561.931352 414.808394,560.527961 415.266463,559.264068 L470.120897,407.934786 C470.779309,406.119331 472.53936,404.940027 474.46117,405.002356 C476.3904,405.069632 478.056957,406.372604 478.587248,408.228622 L487.494849,439.404482 L503.918036,421.290003 C505.107233,419.979116 506.959294,419.496314 508.637724,420.061726 C510.315164,420.626645 511.498425,422.131938 511.651774,423.895452 L514.173129,452.942728 C527.693073,454.811608 538.348852,465.771612 539.750265,479.433527 L583.191574,496.959838 C584.346143,497.425327 585.252387,498.352841 585.691657,499.517304 Z" id="Shape-Copy-2"></path>
        </g>
    </g>
</svg>