<?xml version="1.0" encoding="UTF-8" standalone="no"?>
<svg width="171px" height="173px" viewBox="0 0 171 173" version="1.1" xmlns="http://www.w3.org/2000/svg" xmlns:xlink="http://www.w3.org/1999/xlink">
    <!-- Generator: Sketch 46.2 (44496) - http://www.bohemiancoding.com/sketch -->
    <title>SD_logoShape Copy</title>
    <desc>Created with Sketch.</desc>
    <defs></defs>
    <g id="Page-1" stroke="none" stroke-width="1" fill="#FFFFFF" fill-rule="evenodd">
        <g id="strumdog-logo-copy-6" transform="translate(-39.000000, -405.000000)" fill-rule="nonzero" fill="#FFFFFF">
            <path d="M209.691657,499.517304 C209.252387,498.352841 208.346143,497.425327 207.191574,496.959838 L163.750265,479.433527 C162.348852,465.771612 151.693073,454.811608 138.173129,452.942728 L135.651774,423.895452 C135.498425,422.131938 134.315164,420.626645 132.637724,420.061726 C130.959294,419.496314 129.107233,419.979116 127.918036,421.290003 L111.494849,439.404482 L102.587248,408.228622 C102.056957,406.372604 100.3904,405.069632 98.4611698,405.002356 C96.5393601,404.940027 94.7793089,406.119331 94.1208974,407.934786 L39.2664626,559.264068 C38.8083942,560.527961 38.9459136,561.931352 39.6404364,563.081964 C40.3354538,564.233071 41.5127787,565.008226 42.8444419,565.19175 L130.425045,577.248447 C130.627862,577.276149 130.830678,577.29 131.032505,577.29 C132.099518,577.29 133.138829,576.906133 133.954052,576.19677 C134.923614,575.35335 135.481111,574.132494 135.48408,572.847825 L135.554323,541.064505 C139.784283,541.882697 144.063216,542.296244 148.318405,542.296244 C160.828223,542.296244 173.071907,538.725685 183.726203,531.969918 C194.530384,525.119173 203.443426,515.132194 209.502197,503.088358 C210.062663,501.976825 210.130928,500.681768 209.691657,499.517304 Z M141.577478,492.240645 C137.536978,492.240645 134.249867,488.95304 134.249867,484.913034 C134.249867,480.872535 137.536978,477.584929 141.577478,477.584929 C145.617978,477.584929 148.905088,480.872535 148.905088,484.913034 C148.905088,488.953534 145.617978,492.240645 141.577478,492.240645 Z" id="Shape-Copy"></path>
        </g>
    </g>
</svg>
